<svg version="1.2" xmlns="http://www.w3.org/2000/svg" viewBox="0 0 512 512" width="512" height="512">
	<title>circle-svg</title>
	<style>
		.s0 { fill: #283036 } 
		.s1 { fill: #46545e } 
		.s2 { fill: #81a0c1 } 
	</style>
	<path id="Layer" class="s0" d="m256 512c-141.6 0-256-114.4-256-256c0-141.6 114.4-256 256-256c141.6 0 256 114.4 256 256c0 141.6-114.4 256-256 256z" />
	<path id="Layer" class="s1" d="m256 482c-60.4 0-117.1-23.5-159.8-66.2c-42.7-42.7-66.2-99.4-66.2-159.8c0-60.4 23.5-117.1 66.2-159.8c42.7-42.7 99.4-66.2 159.8-66.2c60.4 0 117.1 23.5 159.8 66.2c42.7 42.7 66.2 99.4 66.2 159.8c0 60.4-23.5 117.1-66.2 159.8c-42.7 42.7-99.4 66.2-159.8 66.2z" />
	<path id="Layer" class="s0" d="m477.2 302.6l-138.1-24.3l131.8 47.9q-2.3 7.2-5.1 14.1l-131.8-47.9l121.5 70.1q-3.6 6.6-7.6 13l-121.4-70.1l107.4 90.1q-4.7 5.8-9.7 11.4l-107.4-90.1l90.1 107.4q-5.6 5-11.4 9.7l-90.1-107.4l70.1 121.4q-6.4 4-13 7.6l-70.1-121.5l47.9 131.8q-6.9 2.8-14.1 5.1l-47.9-131.8l24.3 138.1q-7.3 1.5-14.8 2.6l-24.3-138.1v140.2q-3.7 0.1-7.5 0.1q-3.8 0-7.5-0.1v-140.2l-24.3 138.1q-7.5-1.1-14.8-2.6l24.3-138.1l-47.9 131.8q-7.2-2.3-14.1-5.1l47.9-131.8l-70.1 121.5q-6.6-3.6-13-7.6l70.1-121.4l-90.1 107.4q-5.8-4.7-11.4-9.7l90.1-107.4l-107.4 90.1q-5-5.6-9.7-11.4l107.4-90.1l-121.4 70.1q-4-6.4-7.6-13l121.5-70.1l-131.8 47.9q-2.8-6.9-5.1-14.1l131.8-47.9l-138.1 24.3q-1.5-7.3-2.6-14.8l138.1-24.3h-140.2q-0.1-3.7-0.1-7.5q0-3.8 0.1-7.5h140.2l-138.1-24.3q1.1-7.5 2.6-14.8l138.1 24.3l-131.8-47.9q2.3-7.2 5.1-14.1l131.8 47.9l-121.5-70.1q3.6-6.6 7.6-13l121.4 70.1l-107.4-90.1q4.7-5.8 9.7-11.4l107.4 90.1l-90.1-107.4q5.6-5 11.4-9.7l90.1 107.4l-70.1-121.4q6.4-4 13-7.6l70.1 121.5l-47.9-131.8q6.9-2.8 14.1-5.1l47.9 131.8l-24.3-138.1q7.3-1.5 14.8-2.6l24.3 138.1v-140.2q3.7-0.1 7.5-0.1q3.8 0 7.5 0.1v140.2l24.3-138.1q7.5 1.1 14.8 2.6l-24.3 138.1l47.9-131.8q7.2 2.3 14.1 5.1l-47.9 131.8l70.1-121.5q6.6 3.6 13 7.6l-70.1 121.4l90.1-107.4q5.8 4.7 11.4 9.7l-90.1 107.4l107.4-90.1q5 5.6 9.7 11.4l-107.4 90.1l121.4-70.1q4 6.4 7.6 13l-121.5 70.1l131.8-47.9q2.8 6.9 5.1 14.1l-131.8 47.9l138.1-24.3q1.5 7.3 2.6 14.8l-138.1 24.3h140.2q0.1 3.7 0.1 7.5q0 3.8-0.1 7.5h-140.2l138.1 24.3q-1.1 7.5-2.6 14.8z" />
	<path id="Layer" class="s2" d="m256 462c-113.9 0-206-92.1-206-206c0-113.9 92.1-206 206-206c113.9 0 206 92.1 206 206c0 113.9-92.1 206-206 206z" />
	<g id="Layer">
		<path id="Layer" class="s0" d="m256 178.8l77.1 77.1l-77.1 77.2l-77.1-77.2z" />
		<path id="Layer" class="s0" d="m355.6 178.8l77.2 77.2l-77.2 77.2z" />
		<path id="Layer" class="s0" d="m156.4 333.2l-77.2-77.2l77.2-77.2z" />
		<path id="Layer" class="s0" d="m333.2 355.6l-77.2 77.2l-77.2-77.2z" />
		<path id="Layer" class="s0" d="m178.8 156.4l77.2-77.2l77.2 77.2z" />
		<path id="Layer" class="s0" d="m333.2 292.2v41h-41z" />
		<path id="Layer" class="s0" d="m292.2 178.8h41v41z" />
		<path id="Layer" class="s0" d="m178.8 219.8v-41h41z" />
		<path id="Layer" class="s0" d="m219.8 333.2h-41v-41z" />
		<path id="Layer" class="s0" d="m289.2 84.2c33.2 6.4 64.9 22.4 90.5 48.1c25.7 25.6 41.8 57.3 48.1 90.5z" />
		<path id="Layer" class="s0" d="m379.7 379.7c-25.6 25.7-57.3 41.8-90.5 48.1l138.6-138.6c-6.3 33.2-22.4 64.9-48.1 90.5z" />
		<path id="Layer" class="s0" d="m222.8 427.8c-33.2-6.4-64.9-22.4-90.5-48.1c-25.7-25.6-41.8-57.3-48.1-90.5z" />
		<path id="Layer" class="s0" d="m84.2 222.8c6.4-33.2 22.4-64.9 48.1-90.5c25.6-25.7 57.3-41.8 90.5-48.1z" />
	</g>
</svg>