<svg version="1.2" xmlns="http://www.w3.org/2000/svg" viewBox="0 0 512 512" width="512" height="512">
	<title>round-2-svg</title>
	<style>
		.s0 { fill: #283036 } 
		.s1 { fill: #46545e } 
	</style>
	<path id="Layer" class="s0" d="m512 256c0 141.4-114.6 256-256 256c-18.9 0-37.3-2-55-5.9c-97.2-21.3-173.8-97.9-195.1-195.1c-3.9-17.7-5.9-36.1-5.9-55c0-141.4 114.6-256 256-256c19.5 0 38.6 2.2 56.8 6.3c31.9 7.3 61.5 20.4 87.6 38.3c26.3 18 49 40.7 67 67c17.9 26.1 31.1 55.7 38.3 87.6c4.1 18.3 6.3 37.3 6.3 56.8z" />
	<path id="Layer" class="s1" d="m457.8 201.8c0 111.5-90.3 201.8-201.8 201.8c-14.9 0-29.4-1.6-43.4-4.7c-76.6-16.7-137-77.1-153.7-153.7c-3.1-14-4.7-28.5-4.7-43.4c0-111.4 90.3-201.8 201.8-201.8c15.4 0 30.4 1.7 44.8 5c25.1 5.7 48.5 16.1 69 30.2c20.8 14.1 38.7 32.1 52.9 52.8c14.1 20.6 24.4 43.9 30.1 69c3.3 14.4 5 29.4 5 44.8z" />
</svg>